<?xml version="1.0" encoding="utf-8"?>
<!-- Generator: Adobe Illustrator 13.0.2, SVG Export Plug-In . SVG Version: 6.00 Build 14948)  -->
<!DOCTYPE svg PUBLIC "-//W3C//DTD SVG 1.1//EN" "http://www.w3.org/Graphics/SVG/1.1/DTD/svg11.dtd">
<svg version="1.1" id="lyre_xA0_Image_1_" xmlns="http://www.w3.org/2000/svg" xmlns:xlink="http://www.w3.org/1999/xlink" x="0px"
	 y="0px" width="218.463px" height="305.579px" viewBox="0 0 218.463 305.579" enable-background="new 0 0 218.463 305.579"
	 xml:space="preserve">
<g>
	<path d="M39.231,24.277c-2.443,0.49-1.419-2.487-3.256-2.604c-4.008,2.072-6.581-1.217-7.163-4.558
		c-1.921-1.117-4.136-1.942-3.907-5.209C30.532,12.63,40.811,14.189,39.231,24.277z M35.324,18.417
		c-0.771-0.191-2.46-2.623-3.256-0.651C32.839,17.957,34.528,20.388,35.324,18.417z"/>
	<path d="M189.649,12.556c0.349,3.169-2.598,3.047-3.256,5.209c0.651,4.943-2.951,7.8-6.513,6.512
		c-2.202-0.25-1.024,2.882-3.905,1.954c0.278-4.929,2.2-8.216,4.558-11.07c3.661,0.189,5.804-1.143,7.163-3.256
		C188.748,11.721,188.817,12.52,189.649,12.556z M181.185,21.021c0.409-1.328,3.291-0.183,2.604-2.604
		C181.627,17.617,180.078,20.7,181.185,21.021z"/>
	<path d="M67.231,16.463c-0.375,8.175,0.08,21.394,0.651,31.256c0.185,3.18-2,9.134,2.604,9.768
		c5.495-4.118-6.607-15.629,1.954-16.279c1.85-0.14,0.991,1.213,3.256,1.302c1.682,5.01-2.793,7.549-1.302,14.326
		c0.903,1.485,4.532,0.243,6.512,0.651c0.651-4.216-0.368-9.244,0-14.977c-0.077-3.396-3.842-3.104-2.605-7.814
		c1.83-0.904,3.744-1.721,5.861-0.651c2.128,2.179,1.329,6.245-0.651,7.814c-0.103,5.529-0.063,10.916,0.651,15.628
		c2.604,0,5.209,0,7.814,0c-0.363-5.564,0.998-12.294,0.651-18.232c-0.285-4.893-2.631-7.698-3.256-11.721
		c1.681-2.061,5.7-2.684,7.163,0c2.221,3.207-1.81,4.894-1.954,7.814c0.075,9.121,0.479,13.402,0,21.488
		c1.541,1.498,5.844,0.233,8.465,0.651c-1.213-8.891,1.634-19.545,0-27.349c-0.836-3.996-4.454-5.342-3.907-9.116
		c1.962-3.09,6.023-1.601,7.814,0.651c-3.142,11.094-1.401,20.645-1.954,35.163c2.14,1.333,6.594,0.352,9.767,0.651
		c0-7.163,0-14.326,0-21.488c-0.894-2.998-4.486-5.754-1.302-9.116c7.797,0.351,3.693,7.271,3.257,11.069
		c-0.744,6.459,1.455,12.756,0,18.884c1.756,1.282,5.688,0.388,8.465,0.651c0-4.558,0-9.116,0-13.674
		c-0.664-3.228-4.568-5.673-1.303-9.117c10.219,1.768,2.078,12.479,4.559,22.14c2.121,1.679,4.595-0.811,7.162,0.651
		c1.756-7.695-3.16-11.925-2.604-16.279c1.68-2.323,5.048-0.869,6.512,0.651c-0.76,5.647-3.316,9.022-1.303,15.628
		c1.527-0.208,2.443-1.029,4.559-0.651c0.332-13.634,0.618-27.822-0.649-41.023c1.571-1.248,5.231-0.411,7.812-0.651
		c7.594-4.008,21.793-16.515,35.814-13.674c6.654,1.348,14.256,9.497,11.721,19.535c4.818,6.648,7.323,12.879,3.907,22.14
		c-2.874,1.714-3.431-1.416-5.86-1.954c-7.006-1.242-14.938-1.557-23.441-1.302c-0.401,12.069,5.236,22.592,9.769,33.209
		c8.492,19.897,17.929,38.896,25.396,60.558c6.973,20.224,13.58,44.341,10.418,72.93c-0.125,1.133-0.295,2.49-0.649,3.906
		c-5.099,20.307-16.694,35.336-37.769,41.023c-6.271,1.691-13.409,2.606-20.838,3.906c-4.223,4.678-7.668,10.13-17.582,9.116
		c-1.963,1.94-3.676,4.138-4.558,7.161c2.714,3.486,9.896-1.102,12.372,1.953c1.701,2.027-0.693,4.127,0,7.162
		c6.719,1.099,15.446,0.184,16.277,7.164c11.541-2.213,17.719,10.062,10.42,16.932c-36.482,0.238-88.85-0.477-127.628,0.648
		c-5.364-5.67-6.912-18.326,5.86-16.93c2.693-5.771,9.887-7.043,18.232-7.163c1.593-1.663-0.29-6.802,1.303-8.465
		c3.031-1.001,5.456-0.013,8.465,0.651c1.563-4.631-0.206-7.439-3.256-9.116c-10.4,2.226-17.263-1.433-17.581-11.07
		c-20.41,0.851-38.121-7.676-48.187-20.187c-2.139-2.657-2.766-7.111-6.511-8.465c-3.511-11.701-6.796-21.414-5.861-36.465
		c3.422-55.08,35.628-93.2,42.326-146.514c-4.161-2.993-15.93-0.39-23.442-0.651C14.816,36.515,16.376,26,20.999,22.971
		C13.945,10.226,23.318-1.628,38.58,0.184C50.037,1.544,59.611,14.362,67.231,16.463z M41.185,161.672
		c1.27-27.945,7.651-55.254,15.628-77.488c2.185-6.089,5.989-12.015,6.512-17.582c0.537-5.72-1.026-12.607-1.302-18.884
		c-0.429-9.758,0.653-19.189-0.651-26.698c-6.458-6.632-19.863-17.372-32.56-14.325c-4.219,1.013-6.844,8.162-5.209,14.326
		c0.11,3.146,6.075,0.437,5.861,3.907c-4.333,1.962-9.965,2.625-9.117,9.767c4.182-0.417,7.665-7.605,11.721-3.907
		c1.288,3.505-7.666,2.824-3.907,4.558c6.355,0.591,15.233-1.342,19.535,1.302c-0.534,13.827-3.283,25.591-6.512,37.116
		c-3.246,11.588-8.401,22.124-12.372,33.209c-8.059,22.502-16.165,45.316-20.837,70.326c-3.49,18.682,0.063,35.844,8.465,48.836
		c8.437,13.048,24.355,20.908,43.628,21.488c14.952,0.451,31.559-0.1,47.535-0.65c13.064-0.451,26.451,0.604,39.721,0
		c7.073-0.321,14.655,0.65,21.487,0c10.194-0.971,24.203-10.527,29.955-16.279c9.81-9.811,13.754-25.949,12.371-46.232
		c-1.994-29.238-11.652-52.596-21.488-75.535c-4.748-11.074-9.365-22.513-14.325-33.86c-5.179-11.849-9.87-25.159-7.813-39.721
		c7.342-1.42,17.368-1.555,24.744-1.954c-1.982-2.141-7.527-0.721-7.163-5.209c6.681-1.267,10.025,7.059,13.675,4.558
		c-1.289-3.486-2.797-6.754-5.209-9.116c-2.307-0.735-3.705,2.736-5.209,0.651c1.373-3.815,3.438-2.419,3.906-6.512
		c0.598-5.2-3.561-8.976-5.859-9.767c-12.479-4.291-29.674,12.998-38.42,13.674c1.188,12.143-1.502,29.582,0.651,42.326
		c2.007,11.872,12.972,25.052,15.628,36.465c0.314,1.354,0.879,1.468,1.303,2.605c6.385,17.173,10.229,36.308,12.371,54.698
		c1.553,13.312,1.721,25.207-1.302,38.419c-1.612,7.046-5.396,16.718-9.116,22.139c-2.002,2.916-5.294,4.531-7.162,7.163
		c-1.264,1.778-0.509,4.411-3.257,5.86c-31.376-1.659-68.378,0.648-98.977-0.65C45.812,212.249,39.889,190.193,41.185,161.672z
		 M70.487,69.858c-1.272,0.898-3.429,0.912-3.907,2.604c-0.887,10.137-6.506,19.322-9.768,29.303
		c-4.496,13.755-7.201,28.935-9.116,44.279c-2.655,21.271-0.717,45.218,5.209,61.208c2.455,6.625,4.922,13.703,9.767,18.231
		c2.593,0.861,8.438,1.274,10.419,0.649c0.099-56.762,0.002-111.28-1.954-163.44c-0.651,0-1.302,0-1.954,0
		C66.925,65.592,70.933,66.723,70.487,69.858z M74.394,64.649c0.856,53.217-0.08,104.062,1.954,151.07
		c0.146,3.388-1.488,7.779,1.302,10.419c1.736,0,3.473,0,5.209,0c-0.496-36.367-0.203-83.565-1.302-123.07
		c-0.399-14.352,0.749-27.917-1.302-40.373c-1.52,0-3.039,0-4.558,0C74.878,62.962,74.365,63.535,74.394,64.649z M83.51,63.998
		c0.793,3.307-0.091,5.862,0,9.116c1.358,48.337,0.899,103.735,2.604,153.675c1.328-1.496,5.408-0.236,7.814-0.651
		c-0.008-54.812-0.887-111.865-1.953-163.442C88.325,63.706,85.405,61.985,83.51,63.998z M95.231,63.347
		c-0.963,42.741,0.938,98.05,1.302,143.256c0.081,9.985-2.762,23.151,7.814,19.535c0.461-50.578-1.302-105.857-1.303-151.721
		c0-3.361,1.645-8.615-1.953-11.07C99.162,62.456,98.256,63.729,95.231,63.347z M106.301,63.347
		c-2.741,2.086-0.714,5.965-0.651,8.465c0.084,3.34-0.027,6.578,0,9.767c0.383,45.48,1.827,91.811,1.302,140.651
		c-0.009,0.834-1.216,3.521,0.651,3.907c2.387,0,4.775,0,7.162,0c1.512-57.385,0.162-106.376-0.648-163.442
		c-1.736,0-3.475,0-5.209,0C108.025,62.9,107.662,63.623,106.301,63.347z M116.72,63.998c0.479,27.758,1.123,58.729,1.303,80.744
		c0.166,20.383-1.185,51.627,0,72.93c0.461,8.289,0.593,8.824,7.162,8.466c2.431-2.44,1.211-6.207,1.303-9.116
		c1.381-43.973-0.475-106.252-1.303-154.326c-2.17,0-4.341,0-6.512,0C117.903,63.011,117.196,63.39,116.72,63.998z M127.789,64.649
		c0.127,43.576,1.687,101.206,1.954,151.07c0.02,3.73-1.1,8.292,1.302,9.768c1.735,0,3.474,0,5.21,0
		c1.159-54.074,0.046-109.731-1.303-162.791c-1.953,0-3.907,0-5.86,0C128.272,62.962,127.761,63.535,127.789,64.649z
		 M137.558,64.649c1.344,53.596,0.746,107.014,1.953,160.837c5.952-0.319,10.344,0.636,14.977,0
		c3.687-3.897,5.457-8.862,7.813-13.675c2.378-4.852,5.658-9.73,7.163-14.977c2.86-9.974,3.223-21.981,2.604-31.906
		c-2.269-36.524-16.748-72.777-29.303-97.024c-1.899-2.35,2.058-6.716-3.906-5.209C138.041,62.962,137.528,63.535,137.558,64.649z
		 M65.278,254.138c-1.389,3.331,0.812,3.563,1.302,6.512c8.943-1.771,17.511-1.422,26.698-1.303c17.431,0.228,36.348-0.677,55.349,0
		c1.729-1.525,3.754-2.757,4.558-5.209C122.901,253.907,92.411,254.098,65.278,254.138z M99.79,264.557
		c1.001,2.254,0.575,5.936,0.651,9.115c9.553-0.228,13.822-0.226,22.14-0.65c-0.199-3.238,0.104-5.975,0.65-8.465
		c-4.377-2.275-3.332,4.938-4.56,7.812c-1.856-0.832-1.688-6.142-0.649-7.812c-3.937-0.189-8.771,0.521-11.723-0.65
		c-0.74,1.457,1.095,7.569-1.302,9.115c-2.784-1.713,1.208-7.635-2.604-9.115C102.273,264.87,100.82,264.502,99.79,264.557z
		 M84.812,273.021c1.231-0.146,1.437,0.733,2.604,0.651c3.352-1.977,1.243-7.039-0.651-9.116c-1.085,0-2.17,0-3.256,0
		C84.468,266.854,85.205,269.374,84.812,273.021z M97.836,273.672c1.156-2.479,1.497-9.729-2.604-9.115
		C96.212,267.482,94.458,273.143,97.836,273.672z M126.487,273.021c-0.019-3.489,1.391-5.556,1.953-8.465
		C124.535,263.653,123.048,272.738,126.487,273.021z M129.743,273.021c1.085,0,2.17,0,3.256,0c-0.546-4.235,2.189-5.188,2.604-8.465
		C130.479,264.206,129.653,268.159,129.743,273.021z M112.812,278.23c-11.938,0-24.288,0-35.163,0
		c-0.653-0.002-0.775,0.526-1.302,0.651c-0.036,0.832-0.835,0.9-0.651,1.953c4.39,1.819,10.623,0.246,16.93,0.649
		c12.5,0.806,27.122,0,41.023,0c3.389,0,8.89,1.599,11.068-1.952C136.337,277.297,124.335,278.23,112.812,278.23z M64.626,301.021
		c1.668-0.067,3.104-0.369,3.907-1.304c-2.125-3.018,1.205-6.153,1.953-8.465C66.438,292.09,62.588,296.228,64.626,301.021z
		 M69.836,300.37c2.457,1.205,6.21,0.853,7.163-1.302c0.899,1.923,4.143,1.5,6.512,1.953c0.257-3.729-1.824-7.913,1.954-9.116
		c0.095,2.605-1.671,5.667,0,7.812c14.313,2.107,28.707-0.03,47.535,0.652c-0.265-2.775,0.63-6.709-0.651-8.467
		c-17.689-1.531-34.691-0.128-52.744-0.65c-0.624,2.416-1.111,4.968-3.256,5.859c-0.448-2.617,0.624-3.717,0.651-5.859
		C71.14,290.822,70.735,295.842,69.836,300.37z M134.301,300.37c2.976-0.062,6.604,0.527,7.814-1.302
		c0.35-3.606-0.876-5.637-1.954-7.813C132.744,288.829,135.949,297.026,134.301,300.37z M149.929,300.37
		c1.99,0.471,2.373-0.666,3.907-0.649c0.588-4.94-4.214-7.927-6.512-7.812C149.636,293.284,150.21,296.399,149.929,300.37z
		 M54.859,299.719c-2.049-2.729,0.849-6.075,1.954-7.812C44.781,289.319,43.317,303.325,54.859,299.719z M57.464,297.114
		c1.201,1.403,0.603,4.606,3.907,3.907c-1.874-4.675,3.399-8.487,1.302-9.116C60.731,293.437,58.168,294.347,57.464,297.114z
		 M143.417,300.37c1.303,0,2.604,0,3.907,0c1.562-3.834-0.765-7.97-4.56-8.465C143.509,294.415,144.865,297.559,143.417,300.37z
		 M170.115,299.719c2.485,0.314,4.155-0.186,5.209-1.303c0.614-4.752-4.464-7.24-7.813-5.859
		C169.839,293.483,170.411,296.167,170.115,299.719z M156.44,300.37c7.088-0.298,0.55-9.521-2.604-7.162
		C155.785,294.515,156.707,296.849,156.44,300.37z M167.511,299.719c2.204-2.711-1.768-7.562-3.906-5.86
		C166.007,294.711,164.297,299.676,167.511,299.719z"/>
</g>
</svg>
